#define pacman_width 12
#define pacman_height 12
static unsigned char pacman_bits[] = {
   0x00, 0x00, 0xf0, 0x00, 0xf8, 0x01, 0x9c, 0x03, 0xde, 0x03, 0x7e, 0x00,
   0x1e, 0x00, 0x7e, 0x00, 0xfc, 0x03, 0xf8, 0x01, 0xf0, 0x00, 0x00, 0x00 };
